<svg version="1.0" xmlns="http://www.w3.org/2000/svg"
 width="512.000000pt" height="512.000000pt" viewBox="0 0 512.000000 512.000000"
 preserveAspectRatio="xMidYMid meet">
<g transform="translate(0.000000,512.000000) scale(0.100000,-0.100000)"
fill="#000000" stroke="none">
<path d="M2465 4415 c-335 -54 -616 -218 -769 -449 -53 -80 -102 -189 -127
-281 -30 -109 -33 -355 -5 -460 25 -95 93 -237 150 -312 138 -182 407 -359
727 -476 489 -180 690 -358 730 -646 45 -317 -137 -581 -460 -670 -294 -81
-684 -26 -1021 143 l-108 54 -56 -190 c-32 -104 -55 -196 -52 -204 9 -25 203
-111 331 -148 215 -61 352 -80 590 -80 226 0 329 13 495 61 503 145 793 540
767 1043 -20 371 -191 625 -564 838 -103 59 -173 91 -378 174 -295 119 -485
230 -574 337 -137 163 -161 402 -59 593 41 76 148 177 230 217 126 60 205 75
388 76 231 0 404 -36 597 -125 47 -22 88 -39 90 -36 7 6 123 360 123 374 0 31
-240 118 -424 153 -138 27 -493 35 -621 14z"/>
</g>
</svg>
